<svg width="160" height="50" viewBox="0 0 160 50" fill="none" xmlns="http://www.w3.org/2000/svg">
<path d="M72.282 16.0523V8.99075H73.7859L73.9373 9.92407H73.976C74.5818 9.31829 75.3144 8.81113 76.2759 8.81113C77.7903 8.81113 78.463 9.87124 78.463 11.6393V16.0488H76.607V11.8788C76.607 10.7658 76.29 10.3995 75.6102 10.3995C75.0291 10.3995 74.6628 10.6778 74.1451 11.1814V16.0452H72.289L72.282 16.0523Z" fill="#DDDDDD"/>
<path d="M67.5907 16.2284C65.6078 16.2284 64.0652 14.8654 64.0652 12.5268C64.0652 10.1882 65.6818 8.81113 67.3512 8.81113C69.3094 8.81113 70.3061 10.227 70.3061 12.1852C70.3061 12.5374 70.2674 12.8684 70.2286 13.0445H65.8579C66.0234 14.2068 66.7806 14.802 67.8302 14.802C68.3972 14.802 68.9044 14.6259 69.4221 14.3089L70.042 15.4571C69.3481 15.9361 68.4641 16.2284 67.5907 16.2284ZM65.8367 11.8048H68.7283C68.7283 10.8433 68.2986 10.2375 67.3899 10.2375C66.6433 10.2375 65.9882 10.7693 65.8367 11.8048Z" fill="#DDDDDD"/>
<path d="M61.2933 16.2284C59.6133 16.2284 58.9688 15.1683 58.9688 13.5869V10.4418H57.9827V9.06472L59.0815 8.98724L59.2823 7.06776H60.8249V8.98724H62.5824V10.4383H60.8249V13.5834C60.8249 14.3935 61.1665 14.7703 61.7864 14.7703C62.0259 14.7703 62.29 14.6823 62.4943 14.6048L62.7972 15.9572C62.4168 16.084 61.9273 16.2214 61.2933 16.2214V16.2284Z" fill="#DDDDDD"/>
<path d="M51.7418 16.2284C51.0726 16.2284 50.5936 15.7107 50.5936 15.0168C50.5936 14.323 51.0726 13.8158 51.7418 13.8158C52.411 13.8158 52.904 14.3195 52.904 15.0168C52.904 15.7142 52.4004 16.2284 51.7418 16.2284Z" fill="#DDDDDD"/>
<path d="M46.3778 16.2284C45.4304 16.2284 44.3808 15.8234 43.687 15.2422L44.5217 14.0659C45.1662 14.559 45.7614 14.8478 46.4165 14.8478C47.1244 14.8478 47.452 14.5308 47.452 14.0906C47.452 13.5728 46.7053 13.3192 45.9728 13.041C45.0747 12.6888 44.078 12.157 44.078 10.956C44.078 9.75501 45.0888 8.8076 46.7053 8.8076C47.7302 8.8076 48.5368 9.22319 49.1179 9.67753L48.2726 10.7905C47.7795 10.4383 47.2759 10.1847 46.7582 10.1847C46.1136 10.1847 45.8248 10.4629 45.8248 10.8785C45.8248 11.3822 46.4694 11.5864 47.2266 11.8506C48.1599 12.2028 49.1848 12.6853 49.1848 13.9849C49.1848 15.2845 48.2127 16.2213 46.3813 16.2213L46.3778 16.2284Z" fill="#DDDDDD"/>
<path d="M33.653 16.0523V6.70499H35.7133L37.3052 11.0898C37.5201 11.671 37.6856 12.2767 37.8864 12.8825H37.9357C38.1505 12.2767 38.316 11.671 38.5027 11.0898L40.0559 6.70499H42.1268V16.0523H40.4222V12.1499C40.4222 11.2659 40.5736 9.96281 40.6758 9.07879H40.6124L39.8411 11.2765L38.4006 15.2176H37.3264L35.8859 11.2765L35.1287 9.07879H35.0793C35.1815 9.96281 35.3188 11.2659 35.3188 12.1499V16.0523H33.653Z" fill="#DDDDDD"/>
<path d="M54.267 47.6619C53.4852 47.6619 52.9252 47.0562 52.9252 46.2461C52.9252 45.4361 53.4852 44.8444 54.267 44.8444C55.0489 44.8444 55.623 45.4325 55.623 46.2461C55.623 47.0597 55.0348 47.6619 54.267 47.6619Z" fill="#3C4043"/>
<path d="M47.5154 47.662C46.4095 47.662 45.1874 47.19 44.3773 46.5138L45.3494 45.1437C46.0996 45.7178 46.7934 46.0559 47.5612 46.0559C48.3853 46.0559 48.7692 45.6861 48.7692 45.1719C48.7692 44.5661 47.8993 44.2738 47.0435 43.9498C45.9974 43.5377 44.8317 42.9179 44.8317 41.5196C44.8317 40.1214 46.0115 39.0155 47.8958 39.0155C49.0897 39.0155 50.0336 39.5015 50.7098 40.0334L49.7237 41.3295C49.1496 40.9174 48.5579 40.6215 47.9556 40.6215C47.2055 40.6215 46.8638 40.9456 46.8638 41.4316C46.8638 42.0198 47.614 42.2557 48.498 42.5657C49.5898 42.9777 50.7838 43.5377 50.7838 45.0557C50.7838 46.5737 49.6497 47.6655 47.5119 47.6655L47.5154 47.662Z" fill="#3C4043"/>
<path d="M35.6746 47.4577V35.7119H37.7983V42.7559H37.8723L40.6722 39.2198H43.0601L40.232 42.6079L43.3137 47.4577H40.9716L38.9676 44.0379L37.8018 45.3797V47.4577H35.6781H35.6746Z" fill="#3C4043"/>
<path d="M28.6517 47.4577V39.2198H30.4057L30.5818 40.6779H30.6276C31.2157 39.5861 32.1174 39.012 32.9697 39.012C33.4134 39.012 33.6776 39.0719 33.9276 39.1881L33.5578 41.0442C33.262 40.9702 33.0436 40.9103 32.6879 40.9103C32.054 40.9103 31.2721 41.3541 30.8177 42.5445V47.4506H28.6517V47.4577Z" fill="#3C4043"/>
<path d="M22.2841 47.6619C20.2061 47.6619 18.3184 46.07 18.3184 43.344C18.3184 40.618 20.2061 39.012 22.2841 39.012C24.3621 39.012 26.2322 40.6039 26.2322 43.344C26.2322 46.0841 24.3444 47.6619 22.2841 47.6619ZM22.2841 45.908C23.4041 45.908 24.0239 44.8902 24.0239 43.344C24.0239 41.7979 23.4041 40.78 22.2841 40.78C21.1641 40.78 20.5302 41.7838 20.5302 43.344C20.5302 44.9042 21.15 45.908 22.2841 45.908Z" fill="#3C4043"/>
<path d="M7.07968 47.4577L4.95593 39.2198H7.10786L8.02004 43.2877C8.16797 44.0977 8.2701 44.8796 8.41803 45.6897H8.49199C8.63991 44.8796 8.78783 44.0836 8.99211 43.2877L9.99587 39.2198H11.9118L12.9438 43.2877C13.1339 44.0977 13.296 44.8796 13.4756 45.6897H13.5495C13.6975 44.8796 13.7996 44.0977 13.9616 43.2877L14.8456 39.2198H16.8637L14.8139 47.4577H12.264L11.3941 43.8618C11.218 43.094 11.0842 42.3438 10.9221 41.4598H10.8482C10.7003 42.3438 10.5664 43.094 10.3903 43.8758L9.54858 47.4577H7.07264H7.07968Z" fill="#3C4043"/>
<path d="M158.45 38.1139C157.559 38.1139 156.918 37.4236 156.918 36.4973C156.918 35.571 157.559 34.8983 158.45 34.8983C159.341 34.8983 160 35.571 160 36.4973C160 37.4236 159.327 38.1139 158.45 38.1139Z" fill="#DDDDDD"/>
<path d="M150.537 38.1139C149.272 38.1139 147.874 37.575 146.948 36.8002L148.061 35.2329C148.92 35.8915 149.712 36.279 150.586 36.279C151.53 36.279 151.966 35.8563 151.966 35.2682C151.966 34.5778 150.973 34.2397 149.994 33.8699C148.797 33.398 147.469 32.6901 147.469 31.0911C147.469 29.4921 148.818 28.2277 150.973 28.2277C152.336 28.2277 153.414 28.7842 154.189 29.39L153.062 30.8727C152.403 30.4008 151.73 30.0627 151.04 30.0627C150.181 30.0627 149.793 30.4325 149.793 30.989C149.793 31.6617 150.653 31.9328 151.664 32.285C152.91 32.757 154.273 33.398 154.273 35.1308C154.273 36.8636 152.977 38.1104 150.533 38.1104L150.537 38.1139Z" fill="#DDDDDD"/>
<path d="M137.509 37.8779V24.4522H139.935V32.5034H140.02L143.221 28.4602H145.951L142.718 32.3343L146.24 37.8744H143.563L141.274 33.965L139.942 35.4971V37.8709H137.516L137.509 37.8779Z" fill="#DDDDDD"/>
<path d="M129.986 37.8779V28.4637H131.99L132.191 30.1296H132.24C132.913 28.8828 133.941 28.2277 134.917 28.2277C135.42 28.2277 135.727 28.2947 136.012 28.4285L135.589 30.5522C135.251 30.4677 135.001 30.4008 134.596 30.4008C133.871 30.4008 132.979 30.9044 132.458 32.271V37.8815H129.982L129.986 37.8779Z" fill="#DDDDDD"/>
<path d="M123.217 38.1139C120.843 38.1139 118.687 36.2966 118.687 33.1796C118.687 30.0627 120.843 28.2277 123.217 28.2277C125.59 28.2277 127.732 30.0451 127.732 33.1796C127.732 36.3142 125.576 38.1139 123.217 38.1139ZM123.217 36.1099C124.495 36.1099 125.203 34.9477 125.203 33.1796C125.203 31.4116 124.495 30.2493 123.217 30.2493C121.938 30.2493 121.213 31.394 121.213 33.1796C121.213 34.9653 121.92 36.1099 123.217 36.1099Z" fill="#DDDDDD"/>
<path d="M106.346 37.8779L103.92 28.4637H106.378L107.424 33.1127C107.593 34.039 107.709 34.93 107.878 35.8598H107.963C108.132 34.9336 108.301 34.0249 108.537 33.1127L109.682 28.4637H111.872L113.052 33.1127C113.271 34.039 113.457 34.93 113.658 35.8598H113.743C113.912 34.9336 114.028 34.0425 114.215 33.1127L115.225 28.4637H117.532L115.19 37.8779H112.277L111.284 33.7678C111.083 32.8908 110.932 32.0315 110.745 31.0206H110.661C110.492 32.0315 110.34 32.8908 110.14 33.7819L109.178 37.8744H106.35L106.346 37.8779Z" fill="#DDDDDD"/>
<path d="M92.4768 34.3595C90.582 34.3595 88.4864 33.5494 87.0952 32.3872L88.7611 30.038C90.0501 31.0242 91.2371 31.6053 92.5507 31.6053C93.9666 31.6053 94.6217 30.9749 94.6217 30.0909C94.6217 29.0554 93.1319 28.5482 91.6667 27.9953C89.874 27.2874 87.8771 26.2273 87.8771 23.8253C87.8771 21.4233 89.8987 19.5285 93.1319 19.5285C95.1781 19.5285 96.7947 20.3632 97.957 21.2718L96.2629 23.4942C95.2768 22.7863 94.2659 22.2827 93.2305 22.2827C91.9414 22.2827 91.3603 22.8391 91.3603 23.6738C91.3603 24.6846 92.6494 25.0897 94.1638 25.618C96.034 26.3259 98.0802 27.2838 98.0802 29.8866C98.0802 32.4893 96.1361 34.3595 92.4697 34.3595H92.4768Z" fill="#3C4043"/>
<path d="M83.4536 23.3181L82.5942 21.6769C84.2601 20.7929 85.0702 19.7328 85.0702 18.014L84.8941 15.7142L86.2324 17.5069C85.8274 17.8591 85.3484 18.088 84.8166 18.088C83.7037 18.088 82.795 17.3554 82.795 16.1439C82.795 14.8548 83.6297 14.0483 84.8166 14.0483C86.4085 14.0483 87.2679 15.3127 87.2679 17.4576C87.2679 20.0356 86.0035 22.0044 83.4536 23.3181Z" fill="#3C4043"/>
<path d="M75.5046 34.2996C72.1974 34.2996 69.9469 31.4785 69.9469 26.0899C69.9469 20.7013 72.201 18.0457 75.5046 18.0457C78.8082 18.0457 81.0411 20.7189 81.0411 26.0899C81.0411 31.4609 78.8082 34.2996 75.5046 34.2996ZM75.5046 31.394C76.621 31.394 77.505 30.3832 77.505 26.0899C77.505 21.7966 76.621 20.9091 75.5046 20.9091C74.3881 20.9091 73.483 21.8142 73.483 26.0899C73.483 30.3656 74.3881 31.394 75.5046 31.394Z" fill="#3C4043"/>
<path d="M57.053 34.0038V30.9713H60.3812V22.0643H57.4967V19.7468C59.1802 19.4298 60.2756 19.0107 61.3709 18.3134H64.1286V30.9678H66.9497V34.0002H57.053V34.0038Z" fill="#3C4043"/>
<path d="M47.3147 28.1185V25.4665H54.2389V28.1185H47.3147Z" fill="#3C4043"/>
<path d="M38.4957 34.3595C36.6009 34.3595 34.5053 33.5494 33.1141 32.3872L34.78 30.038C36.0691 31.0242 37.256 31.6053 38.5697 31.6053C39.9855 31.6053 40.6406 30.9749 40.6406 30.0909C40.6406 29.0554 39.1508 28.5482 37.6857 27.9953C35.893 27.2874 33.896 26.2273 33.896 23.8253C33.896 21.4233 35.9176 19.5285 39.1508 19.5285C41.1971 19.5285 42.8136 20.3632 43.9759 21.2718L42.2818 23.4942C41.2957 22.7863 40.2849 22.2827 39.2494 22.2827C37.9604 22.2827 37.3792 22.8391 37.3792 23.6738C37.3792 24.6846 38.6683 25.0897 40.1827 25.618C42.0529 26.3259 44.0992 27.2838 44.0992 29.8866C44.0992 32.4893 42.155 34.3595 38.4887 34.3595H38.4957Z" fill="#3C4043"/>
<path d="M5.24119 34.0038V5.96185H11.4187L16.1945 19.1129C16.839 20.8563 17.3321 22.6736 17.9379 24.4944H18.0893C18.7339 22.6771 19.2269 20.8563 19.794 19.1129L24.4571 5.96185H30.6733V34.0073H25.5559V22.2967C25.5559 19.6447 26.0102 15.7388 26.3131 13.0868H26.1229L23.8125 19.6799L19.4911 31.5032H16.2685L11.947 19.6799L9.67183 13.0868H9.52038C9.82327 15.7388 10.2389 19.6447 10.2389 22.2967V34.0073H5.23767L5.24119 34.0038Z" fill="#3C4043"/>
</svg>
