<?xml version="1.0" encoding="UTF-8"?>
<svg id="_レイヤー_1" data-name="レイヤー 1" xmlns="http://www.w3.org/2000/svg" width="160.26mm" height="74.05mm" xmlns:xlink="http://www.w3.org/1999/xlink" viewBox="0 0 454.29 209.9">
  <defs>
    <style>
      .cls-1 {
        fill: #3c4043;
      }

      .cls-2 {
        fill: #eaeaea;
      }

      .cls-3 {
        fill: url(#_名称未設定グラデーション_7);
      }
    </style>
    <linearGradient id="_名称未設定グラデーション_7" data-name="名称未設定グラデーション 7" x1="0" y1="70.12" x2="453.54" y2="70.12" gradientUnits="userSpaceOnUse">
      <stop offset=".04" stop-color="#fff"/>
      <stop offset=".08" stop-color="#eff2f2"/>
      <stop offset=".16" stop-color="#d9e2e2"/>
      <stop offset=".26" stop-color="#c8d5d5"/>
      <stop offset=".38" stop-color="#bccccc"/>
      <stop offset=".54" stop-color="#b5c7c7"/>
      <stop offset="1" stop-color="#b4c6c6"/>
    </linearGradient>
  </defs>
  <path class="cls-3" d="M433.14,140.25H8.96C-10.76,69.67,6.83,41.16,16.43,30.22c41.44-47.23,167.32-33.12,242.82,1.51,28.84,13.23,73.07,39.88,112.28,24.95,7.69-2.93,19.75-9.19,35.87-7.02,2.36.32,32.49,4.89,42.89,31.19,7.89,19.97,1.13,44.19-17.15,59.4Z"/>
  <path class="cls-2" d="M205.23,45.58v-20.05h4.27l.43,2.65h.11c1.72-1.72,3.8-3.16,6.53-3.16,4.3,0,6.21,3.01,6.21,8.03v12.52h-5.27v-11.84c0-3.16-.9-4.2-2.83-4.2-1.65,0-2.69.79-4.16,2.22v13.81h-5.27Z"/>
  <path class="cls-2" d="M191.91,46.08c-5.63,0-10.01-3.87-10.01-10.51s4.59-10.55,9.33-10.55c5.56,0,8.39,4.02,8.39,9.58,0,1-.11,1.94-.22,2.44h-12.41c.47,3.3,2.62,4.99,5.6,4.99,1.61,0,3.05-.5,4.52-1.4l1.76,3.26c-1.97,1.36-4.48,2.19-6.96,2.19ZM186.93,33.52h8.21c0-2.73-1.22-4.45-3.8-4.45-2.12,0-3.98,1.51-4.41,4.45Z"/>
  <path class="cls-2" d="M174.03,46.08c-4.77,0-6.6-3.01-6.6-7.5v-8.93h-2.8v-3.91l3.12-.22.57-5.45h4.38v5.45h4.99v4.12h-4.99v8.93c0,2.3.97,3.37,2.73,3.37.68,0,1.43-.25,2.01-.47l.86,3.84c-1.08.36-2.47.75-4.27.75Z"/>
  <path class="cls-2" d="M146.91,46.08c-1.9,0-3.26-1.47-3.26-3.44s1.36-3.41,3.26-3.41,3.3,1.43,3.3,3.41-1.43,3.44-3.3,3.44Z"/>
  <path class="cls-2" d="M131.68,46.08c-2.69,0-5.67-1.15-7.64-2.8l2.37-3.34c1.83,1.4,3.52,2.22,5.38,2.22,2.01,0,2.94-.9,2.94-2.15,0-1.47-2.12-2.19-4.2-2.98-2.55-1-5.38-2.51-5.38-5.92s2.87-6.1,7.46-6.1c2.91,0,5.2,1.18,6.85,2.47l-2.4,3.16c-1.4-1-2.83-1.72-4.3-1.72-1.83,0-2.65.79-2.65,1.97,0,1.43,1.83,2.01,3.98,2.76,2.65,1,5.56,2.37,5.56,6.06s-2.76,6.35-7.96,6.35Z"/>
  <path class="cls-2" d="M95.55,45.58v-26.54h5.85l4.52,12.45c.61,1.65,1.08,3.37,1.65,5.09h.14c.61-1.72,1.08-3.44,1.61-5.09l4.41-12.45h5.88v26.54h-4.84v-11.08c0-2.51.43-6.21.72-8.72h-.18l-2.19,6.24-4.09,11.19h-3.05l-4.09-11.19-2.15-6.24h-.14c.29,2.51.68,6.21.68,8.72v11.08h-4.73Z"/>
  <path class="cls-1" d="M154.08,135.33c-2.22,0-3.81-1.72-3.81-4.02s1.59-3.98,3.81-3.98,3.85,1.67,3.85,3.98-1.67,4.02-3.85,4.02Z"/>
  <path class="cls-1" d="M134.91,135.33c-3.14,0-6.61-1.34-8.91-3.26l2.76-3.89c2.13,1.63,4.1,2.59,6.28,2.59,2.34,0,3.43-1.05,3.43-2.51,0-1.72-2.47-2.55-4.9-3.47-2.97-1.17-6.28-2.93-6.28-6.9s3.35-7.11,8.7-7.11c3.39,0,6.07,1.38,7.99,2.89l-2.8,3.68c-1.63-1.17-3.31-2.01-5.02-2.01-2.13,0-3.1.92-3.1,2.3,0,1.67,2.13,2.34,4.64,3.22,3.1,1.17,6.49,2.76,6.49,7.07s-3.22,7.41-9.29,7.41Z"/>
  <path class="cls-1" d="M101.29,134.75v-33.35h6.03v20h.21l7.95-10.04h6.78l-8.03,9.62,8.75,13.77h-6.65l-5.69-9.71-3.31,3.81v5.9h-6.03Z"/>
  <path class="cls-1" d="M81.35,134.75v-23.39h4.98l.5,4.14h.13c1.67-3.1,4.23-4.73,6.65-4.73,1.26,0,2.01.17,2.72.5l-1.05,5.27c-.84-.21-1.46-.38-2.47-.38-1.8,0-4.02,1.26-5.31,4.64v13.93h-6.15Z"/>
  <path class="cls-1" d="M63.27,135.33c-5.9,0-11.26-4.52-11.26-12.26s5.36-12.3,11.26-12.3,11.21,4.52,11.21,12.3-5.36,12.26-11.21,12.26ZM63.27,130.35c3.18,0,4.94-2.89,4.94-7.28s-1.76-7.28-4.94-7.28-4.98,2.85-4.98,7.28,1.76,7.28,4.98,7.28Z"/>
  <path class="cls-1" d="M20.1,134.75l-6.03-23.39h6.11l2.59,11.55c.42,2.3.71,4.52,1.13,6.82h.21c.42-2.3.84-4.56,1.42-6.82l2.85-11.55h5.44l2.93,11.55c.54,2.3,1,4.52,1.51,6.82h.21c.42-2.3.71-4.52,1.17-6.82l2.51-11.55h5.73l-5.82,23.39h-7.24l-2.47-10.21c-.5-2.18-.88-4.31-1.34-6.82h-.21c-.42,2.51-.8,4.64-1.3,6.86l-2.39,10.17h-7.03Z"/>
  <path class="cls-2" d="M449.89,108.22c-2.53,0-4.35-1.96-4.35-4.59s1.82-4.54,4.35-4.54,4.4,1.91,4.4,4.54-1.91,4.59-4.4,4.59Z"/>
  <path class="cls-2" d="M427.42,108.22c-3.59,0-7.56-1.53-10.19-3.73l3.16-4.45c2.44,1.87,4.69,2.97,7.17,2.97,2.68,0,3.92-1.2,3.92-2.87,0-1.96-2.82-2.92-5.6-3.97-3.4-1.34-7.17-3.35-7.17-7.89s3.83-8.13,9.95-8.13c3.87,0,6.93,1.58,9.13,3.3l-3.2,4.21c-1.87-1.34-3.78-2.3-5.74-2.3-2.44,0-3.54,1.05-3.54,2.63,0,1.91,2.44,2.68,5.31,3.68,3.54,1.34,7.41,3.16,7.41,8.08s-3.68,8.46-10.62,8.46Z"/>
  <path class="cls-2" d="M390.43,107.55v-38.12h6.89v22.86h.24l9.09-11.48h7.75l-9.18,11,10,15.73h-7.6l-6.5-11.1-3.78,4.35v6.74h-6.89Z"/>
  <path class="cls-2" d="M369.07,107.55v-26.73h5.69l.57,4.73h.14c1.91-3.54,4.83-5.4,7.6-5.4,1.43,0,2.3.19,3.11.57l-1.2,6.03c-.96-.24-1.67-.43-2.82-.43-2.06,0-4.59,1.43-6.07,5.31v15.93h-7.03Z"/>
  <path class="cls-2" d="M349.85,108.22c-6.74,0-12.86-5.16-12.86-14.01s6.12-14.06,12.86-14.06,12.82,5.16,12.82,14.06-6.12,14.01-12.82,14.01ZM349.85,102.53c3.63,0,5.64-3.3,5.64-8.32s-2.01-8.32-5.64-8.32-5.69,3.25-5.69,8.32,2.01,8.32,5.69,8.32Z"/>
  <path class="cls-2" d="M301.95,107.55l-6.89-26.73h6.98l2.97,13.2c.48,2.63.81,5.16,1.29,7.8h.24c.48-2.63.96-5.21,1.63-7.8l3.25-13.2h6.22l3.35,13.2c.62,2.63,1.15,5.16,1.72,7.8h.24c.48-2.63.81-5.16,1.34-7.8l2.87-13.2h6.55l-6.65,26.73h-8.27l-2.82-11.67c-.57-2.49-1-4.93-1.53-7.8h-.24c-.48,2.87-.91,5.31-1.48,7.84l-2.73,11.62h-8.03Z"/>
  <path class="cls-1" d="M262.57,97.56c-5.38,0-11.33-2.3-15.28-5.6l4.73-6.67c3.66,2.8,7.03,4.45,10.76,4.45,4.02,0,5.88-1.79,5.88-4.3,0-2.94-4.23-4.38-8.39-5.95-5.09-2.01-10.76-5.02-10.76-11.84s5.74-12.2,14.92-12.2c5.81,0,10.4,2.37,13.7,4.95l-4.81,6.31c-2.8-2.01-5.67-3.44-8.61-3.44-3.66,0-5.31,1.58-5.31,3.95,0,2.87,3.66,4.02,7.96,5.52,5.31,2.01,11.12,4.73,11.12,12.12s-5.52,12.7-15.93,12.7Z"/>
  <path class="cls-1" d="M236.95,66.21l-2.44-4.66c4.73-2.51,7.03-5.52,7.03-10.4l-.5-6.53,3.8,5.09c-1.15,1-2.51,1.65-4.02,1.65-3.16,0-5.74-2.08-5.74-5.52,0-3.66,2.37-5.95,5.74-5.95,4.52,0,6.96,3.59,6.96,9.68,0,7.32-3.59,12.91-10.83,16.64Z"/>
  <path class="cls-1" d="M214.38,97.39c-9.39,0-15.78-8.01-15.78-23.31s6.4-22.84,15.78-22.84,15.72,7.59,15.72,22.84-6.34,23.31-15.72,23.31ZM214.38,89.14c3.17,0,5.68-2.87,5.68-15.06s-2.51-14.71-5.68-14.71-5.74,2.57-5.74,14.71,2.57,15.06,5.74,15.06Z"/>
  <path class="cls-1" d="M161.99,96.55v-8.61h9.45v-25.29h-8.19v-6.58c4.78-.9,7.89-2.09,11-4.07h7.83v35.93h8.01v8.61h-28.1Z"/>
  <path class="cls-1" d="M134.34,79.84v-7.53h19.66v7.53h-19.66Z"/>
  <path class="cls-1" d="M109.3,97.56c-5.38,0-11.33-2.3-15.28-5.6l4.73-6.67c3.66,2.8,7.03,4.45,10.76,4.45,4.02,0,5.88-1.79,5.88-4.3,0-2.94-4.23-4.38-8.39-5.95-5.09-2.01-10.76-5.02-10.76-11.84s5.74-12.2,14.92-12.2c5.81,0,10.4,2.37,13.7,4.95l-4.81,6.31c-2.8-2.01-5.67-3.44-8.61-3.44-3.66,0-5.31,1.58-5.31,3.95,0,2.87,3.66,4.02,7.96,5.52,5.31,2.01,11.12,4.73,11.12,12.12s-5.52,12.7-15.93,12.7Z"/>
  <path class="cls-1" d="M14.88,96.55V16.93h17.54l13.56,37.34c1.83,4.95,3.23,10.11,4.95,15.28h.43c1.83-5.16,3.23-10.33,4.84-15.28l13.24-37.34h17.65v79.63h-14.53v-33.25c0-7.53,1.29-18.62,2.15-26.15h-.54l-6.56,18.72-12.27,33.57h-9.15l-12.27-33.57-6.46-18.72h-.43c.86,7.53,2.04,18.62,2.04,26.15v33.25h-14.2Z"/>
</svg>